<svg width="25" height="24" viewBox="0 0 25 24" fill="none" xmlns="http://www.w3.org/2000/svg">
<path d="M12.5 5C12.2348 5 11.9804 5.10536 11.7929 5.29289C11.6054 5.48043 11.5 5.73478 11.5 6V10C11.5 10.2652 11.6054 10.5196 11.7929 10.7071C11.9804 10.8946 12.2348 11 12.5 11C12.7652 11 13.0196 10.8946 13.2071 10.7071C13.3946 10.5196 13.5 10.2652 13.5 10V6C13.5 5.73478 13.3946 5.48043 13.2071 5.29289C13.0196 5.10536 12.7652 5 12.5 5Z" fill="white"/>
<path fill-rule="evenodd" clip-rule="evenodd" d="M4.5 8C4.5 5.87827 5.34285 3.84344 6.84315 2.34315C8.34344 0.842855 10.3783 0 12.5 0C14.6217 0 16.6566 0.842855 18.1569 2.34315C19.6571 3.84344 20.5 5.87827 20.5 8V16C20.5 18.1217 19.6571 20.1566 18.1569 21.6569C16.6566 23.1571 14.6217 24 12.5 24C10.3783 24 8.34344 23.1571 6.84315 21.6569C5.34285 20.1566 4.5 18.1217 4.5 16V8ZM18.5 8V16C18.5 17.5913 17.8679 19.1174 16.7426 20.2426C15.6174 21.3679 14.0913 22 12.5 22C10.9087 22 9.38258 21.3679 8.25736 20.2426C7.13214 19.1174 6.5 17.5913 6.5 16V8C6.5 6.4087 7.13214 4.88258 8.25736 3.75736C9.38258 2.63214 10.9087 2 12.5 2C14.0913 2 15.6174 2.63214 16.7426 3.75736C17.8679 4.88258 18.5 6.4087 18.5 8Z" fill="white"/>
</svg>
