<svg width="18" height="14" viewBox="0 0 18 14" fill="none" xmlns="http://www.w3.org/2000/svg">
<path fill-rule="evenodd" clip-rule="evenodd" d="M0.199951 12.8C0.199951 13.2971 0.602895 13.7 1.09995 13.7L17.1 13.7C17.597 13.7 18 13.2971 18 12.8C18 12.3029 17.597 11.9 17.1 11.9L1.09995 11.9C0.602895 11.9 0.199951 12.3029 0.199951 12.8Z" fill="white"/>
<path fill-rule="evenodd" clip-rule="evenodd" d="M4 7C4 7.49706 4.31692 7.9 4.70787 7.9L17.2921 7.9C17.6831 7.9 18 7.49706 18 7C18 6.50295 17.6831 6.1 17.2921 6.1L4.70787 6.1C4.31692 6.1 4 6.50295 4 7Z" fill="white"/>
<path fill-rule="evenodd" clip-rule="evenodd" d="M0.199951 1.2C0.199951 1.69706 0.602895 2.1 1.09995 2.1L17.1 2.1C17.597 2.1 18 1.69706 18 1.2C18 0.702946 17.597 0.300002 17.1 0.300002L1.09995 0.300002C0.602895 0.300002 0.199951 0.702946 0.199951 1.2Z" fill="white"/>
</svg>
