<svg width="20" height="20" viewBox="0 0 20 20" fill="none" xmlns="http://www.w3.org/2000/svg">
<g opacity="0.6">
<path d="M5 15.275V9.06643C5 8.88357 5.04095 8.71048 5.12286 8.54714C5.20476 8.38381 5.31762 8.24929 5.46143 8.14357L9.30786 5.23071C9.50929 5.07691 9.73929 5 9.99786 5C10.2564 5 10.4879 5.07691 10.6921 5.23071L14.5386 8.14286C14.6829 8.24857 14.7957 8.38333 14.8771 8.54714C14.959 8.71048 15 8.88357 15 9.06643V15.275C15 15.4664 14.9288 15.6333 14.7864 15.7757C14.644 15.9181 14.4771 15.9893 14.2857 15.9893H11.8686C11.7048 15.9893 11.5676 15.934 11.4571 15.8236C11.3467 15.7126 11.2914 15.5755 11.2914 15.4121V12.0057C11.2914 11.8424 11.2362 11.7055 11.1257 11.595C11.0148 11.484 10.8776 11.4286 10.7143 11.4286H9.28571C9.12238 11.4286 8.98548 11.484 8.875 11.595C8.76405 11.7055 8.70857 11.8424 8.70857 12.0057V15.4129C8.70857 15.5762 8.65333 15.7131 8.54286 15.8236C8.43238 15.934 8.29548 15.9893 8.13214 15.9893H5.71429C5.52286 15.9893 5.35595 15.9181 5.21357 15.7757C5.07119 15.6333 5 15.4664 5 15.275Z" fill="white"/>
</g>
</svg>
